<svg xmlns="http://www.w3.org/2000/svg" width="205.12" height="182.28" viewBox="0 0 205.12 182.28">
    <g id="Layer_2" data-name="Layer 2">
        <g id="Layer_1-2" data-name="Layer 1">
            <path d="M75.62,182.28A75.62,75.62,0,1,0,0,106.66a75.62,75.62,0,0,0,75.62,75.62Z" fill="#2f558c"
                  fill-rule="evenodd"/>
            <path d="M174,82.05c3.09,3.43,31.1-2.25,31.1-2.25s-30.49-3-31.35,1.38c-2,.11-4.08.18-6.29.27l-1.37,0C171.38,77.76,182,56,182,56s-20.43,21.88-18.09,25.61c-1.51,0-3,.07-4.62.09-2.83.06-5.76.08-8.74.06s-6,0-9-.1c-6.05-.11-12.08-.38-17.74-.67-2.82-.18-5.55-.31-8.14-.51-1.52-.1-3-.21-4.39-.32l3.76-3.78a112,112,0,0,1,15.29-12.8l25.43-17.64c3.44-2.85,1.39-5,1.39-5l-6.08-7.36L145,26.15s-1.77-2.43-5.21.42L117.66,48.21a110.05,110.05,0,0,1-10.43,9c-.32-.68-.67-1.46-1-2.31-.71-1.7-1.53-3.7-2.25-5.89-.38-1.09-.73-2.23-1-3.4s-.61-2.37-.9-3.57-.45-2.42-.68-3.62-.28-2.39-.37-3.55c0-.43,0-.86,0-1.28,4.38,1.79,28-13.66,28-13.66s-23.74,6.89-28,11.45c.06-.86.1-1.68.16-2.45C105.47,28.25,112.94,0,112.94,0S96.5,26.47,100.39,28.79c-.16.83-.29,1.72-.45,2.66-.06.39-.08.8-.12,1.2-3-6.37-20.48-21.31-20.48-21.31S95.6,37,99.66,35.24c0,1.09,0,2.19,0,3.33s.16,2.53.32,3.79.31,2.54.56,3.77.45,2.45.73,3.62c.52,2.34,1.15,4.48,1.71,6.32.42,1.31.81,2.45,1.15,3.38-.65.46-1.28.93-1.93,1.37L80.9,75.23A2.44,2.44,0,0,0,80.52,79l6.28,7.6s4.38,5.29,6.28,7.6a2.43,2.43,0,0,0,3.81.33L107,84.39c.36,0,.73,0,1.1,0,2.28.07,4.76.12,7.37.16s5.37,0,8.22.06c5.7,0,11.77-.1,17.84-.33,3-.1,6.07-.21,9.06-.39s5.92-.33,8.76-.55,5.54-.41,8.12-.67c-1.06,4.28,24.61,19.4,24.61,19.4S177,85.54,170.37,82.43C171.63,82.31,172.85,82.19,174,82.05Z"
                  fill="#ed2024"/>
            <path d="M91.23,95.36,85.15,88l-6.09-7.36s-1.76-2.43-5.21.42L51.74,102.71a111.91,111.91,0,0,1-15.45,12.61L15,129.72a2.44,2.44,0,0,0-.39,3.81c1.91,2.3,6.28,7.6,6.28,7.6l6.28,7.6a2.44,2.44,0,0,0,3.81.34l18.17-18.22a110.12,110.12,0,0,1,15.29-12.8L89.84,100.4C93.29,97.55,91.23,95.36,91.23,95.36Z"
                  fill="#ed2024"/>
            <path d="M99.31,103.66s11.38,3.5,7.56,13.29c0,0-5,10-19.62,5.12l-3,2.69-.1-9.49,4.27,3.24s9.81,2.67,10-3c0,0-.5-2.09-8-4.39,0,0-8.76-2.69-6.77-10.41,0,0,1.39-12,18.8-7.16l3-1.65,0,9.2-3.75-3.69s-7.86-2.54-9,1.28c-1.28,4.16,3.84,3.88,6.7,4.92Z"
                  fill="#fff" fill-rule="evenodd"/>
            <polygon
                    points="116.37 93.01 129.48 93.01 140.07 118.51 143.54 121.89 125.66 121.89 128.52 119.03 127.05 115.21 117.41 115.21 116.28 119.2 118.28 121.89 109.77 121.89 112.68 118.99 119.71 96.59 116.37 93.01 116.37 93.01"
                    fill="#fff" fill-rule="evenodd"/>
            <polygon points="125.75 111.22 121.67 101.32 118.54 111.22 125.75 111.22 125.75 111.22" fill="#2f558c"
                     fill-rule="evenodd"/>
            <polygon
                    points="13.42 93.12 25.58 93.12 35.99 110.65 35.99 95.29 34.08 93.12 41.72 93.12 39.81 96.07 39.81 118.9 42.59 121.94 30.44 121.94 20.04 103.95 20.04 119.01 22.28 121.98 13.08 121.98 15.68 118.81 15.68 96.59 13.42 93.12 13.42 93.12"
                    fill="#fff" fill-rule="evenodd"/>
            <polygon
                    points="53.92 93.08 67.35 93.08 76.96 118.57 80.44 121.96 63.2 121.96 66.07 119.09 64.59 115.27 54.96 115.27 54.37 119.27 56.37 121.96 47.32 121.96 50.55 119.05 57.26 96.66 53.92 93.08 53.92 93.08"
                    fill="#fff" fill-rule="evenodd"/>
            <polygon points="63.29 111.28 59.21 101.39 56.09 111.28 63.29 111.28 63.29 111.28" fill="#ed2024"
                     fill-rule="evenodd"/>
            <path d="M83.91,105s-3-8.25,6.07-11.28c0,0,4.34-3.48,13.46,0l2-1.78v9.2s-4.16-4.39-7.2-4.82-6.08.43-5.64,4.77L83.91,105Z"
                  fill="#fff" fill-rule="evenodd"/>
            <polyline
                    points="87.74 81.38 95.05 89.14 101.98 81.92 104.43 79.36 102.71 77.7 100.42 79.91 96.97 83.34 91.44 77.7"
                    fill="#fff" fill-rule="evenodd"/>
        </g>
    </g>
</svg>